PathFileType	4	(X/Y/Z)	/tmp/tmpfnw413rt//results/MarkerData/Run_5.trc
DataRate	CameraRate	NumFrames	NumMarkers	Units	OrigDataRate	OrigDataStartFrame	OrigNumFrames
100	100	8	45	m	100	318	364
Frame#	Time	C7			CLAV			LACR			LASI			LCAL			LFAradius			LFAsuperior			LFAulna			LLEL			LMEL			LMT5			LPSH			LPSI			LTB1			LTB2			LTB3			LTH1			LTH2			LTH3			LTOE			LUA1			LUA2			LUA3			RACR			RASI			RCAL			RFAradius			RFAsuperior			RFAulna			RLEL			RLMAL			RMEL			RMMAL			RMT5			RPSI			RTB1			RTB2			RTB3			RTH1			RTH2			RTH3			RTOE			RUA1			RUA2			RUA3		
		X1	Y1	Z1	X2	Y2	Z2	X3	Y3	Z3	X4	Y4	Z4	X5	Y5	Z5	X6	Y6	Z6	X7	Y7	Z7	X8	Y8	Z8	X9	Y9	Z9	X10	Y10	Z10	X11	Y11	Z11	X12	Y12	Z12	X13	Y13	Z13	X14	Y14	Z14	X15	Y15	Z15	X16	Y16	Z16	X17	Y17	Z17	X18	Y18	Z18	X19	Y19	Z19	X20	Y20	Z20	X21	Y21	Z21	X22	Y22	Z22	X23	Y23	Z23	X24	Y24	Z24	X25	Y25	Z25	X26	Y26	Z26	X27	Y27	Z27	X28	Y28	Z28	X29	Y29	Z29	X30	Y30	Z30	X31	Y31	Z31	X32	Y32	Z32	X33	Y33	Z33	X34	Y34	Z34	X35	Y35	Z35	X36	Y36	Z36	X37	Y37	Z37	X38	Y38	Z38	X39	Y39	Z39	X40	Y40	Z40	X41	Y41	Z41	X42	Y42	Z42	X43	Y43	Z43	X44	Y44	Z44	X45	Y45	Z45

319	3.26	0.839479	1.56063	-0.329348	0.947411	1.46503	-0.300874	0.891415	1.54372	-0.487265	0.886108	1.02787	-0.451133	0.333504	0.189572	-0.314079	0.996733	1.2788	-0.486086	0.885125	1.18246	-0.577807	1.02496	1.21717	-0.497036	0.811771	1.2118	-0.635599	0.76726	1.19658	-0.553971	0.437968	0.0620276	-0.407104	0.812112	1.5032	-0.507928	0.73188	1.08946	-0.369579	0.628592	0.395261	-0.416015	0.500351	0.361738	-0.425316	0.504624	0.251814	-0.380246	0.729127	0.831331	-0.49003	0.768664	0.706941	-0.479782	0.688446	0.626225	-0.46304	0.493438	0.0628961	-0.341895	0.825763	1.41268	-0.567258	0.766866	1.32911	-0.558777	0.797374	1.28742	-0.614972	0.87316	1.52099	-0.168043	0.904133	1.04149	-0.217162	0.732481	0.384289	-0.293224	0.846706	1.11204	-0.0996953	0.676376	1.19395	-0.036671	0.80874	1.0648	-0.0695882	0.654043	1.27147	-0.0291317	0.797908	0.370711	-0.228869	0.629017	1.2636	-0.1132	0.822349	0.364926	-0.310526	0.824998	0.262895	-0.188709	0.736051	1.08654	-0.280405	1.05889	0.523647	-0.273682	0.991841	0.517058	-0.223614	0.909285	0.415445	-0.256926	0.931822	0.830827	-0.176651	1.03644	0.833039	-0.210267	1.0504	0.716742	-0.21623	0.887299	0.225303	-0.257683	0.778945	1.40509	-0.0806953	0.690939	1.38352	-0.106511	0.671408	1.33547	-0.0574933
320	3.27	0.837811	1.56803	-0.328355	0.945197	1.47408	-0.298119	0.892199	1.55271	-0.484683	0.893778	1.03404	-0.449505	0.313722	0.214675	-0.316925	0.995907	1.29517	-0.478658	0.891319	1.19423	-0.573607	1.02656	1.23433	-0.487711	0.819414	1.22075	-0.635181	0.772099	1.2056	-0.554434	0.394801	0.0695072	-0.407174	0.813703	1.51157	-0.50757	0.737704	1.09547	-0.372792	0.602432	0.412443	-0.418961	0.473218	0.38014	-0.424992	0.478629	0.267654	-0.384907	0.727596	0.841633	-0.490847	0.759257	0.716139	-0.478538	0.673151	0.641382	-0.463198	0.451329	0.0655979	-0.344573	0.829661	1.42199	-0.566626	0.771736	1.33849	-0.558896	0.803165	1.29733	-0.614977	0.868031	1.52905	-0.167267	0.9078	1.05139	-0.217632	0.776804	0.349302	-0.293742	0.840122	1.12608	-0.097824	0.667547	1.20669	-0.0380959	0.801898	1.0783	-0.0689388	0.644957	1.28407	-0.0314579	0.842852	0.343038	-0.229156	0.622053	1.27589	-0.11591	0.868728	0.341259	-0.310717	0.882452	0.238394	-0.189748	0.74075	1.09328	-0.283944	1.08279	0.528995	-0.270749	1.0167	0.513903	-0.221362	0.947884	0.402394	-0.255908	0.937382	0.842145	-0.17664	1.04167	0.84535	-0.208529	1.05555	0.728585	-0.215919	0.949688	0.209988	-0.258762	0.772583	1.41657	-0.0810903	0.685578	1.39491	-0.109261	0.663823	1.34809	-0.060244
321	3.28	0.83643	1.57448	-0.327373	0.943489	1.4819	-0.295549	0.892492	1.56082	-0.482085	0.90057	1.04092	-0.448664	0.298099	0.242103	-0.319686	0.994132	1.30865	-0.472171	0.895626	1.20479	-0.570475	1.02652	1.24839	-0.479746	0.825718	1.22964	-0.635498	0.775595	1.2144	-0.55603	0.355706	0.0841668	-0.407447	0.814742	1.51921	-0.506918	0.742626	1.10181	-0.375375	0.581974	0.429812	-0.421293	0.451666	0.39914	-0.425438	0.45636	0.284975	-0.388952	0.726391	0.852753	-0.492135	0.751117	0.726241	-0.47851	0.661147	0.656887	-0.463177	0.415201	0.0709695	-0.348038	0.833317	1.43095	-0.566348	0.775762	1.34813	-0.560329	0.808526	1.30697	-0.615439	0.864009	1.5361	-0.166612	0.91105	1.06035	-0.218115	0.823635	0.315684	-0.294822	0.834633	1.13904	-0.0954694	0.659949	1.2184	-0.0390346	0.796224	1.09071	-0.067782	0.637064	1.29572	-0.0334241	0.88917	0.316191	-0.229787	0.616603	1.28673	-0.118216	0.91602	0.318604	-0.311011	0.940034	0.21592	-0.190854	0.745119	1.09969	-0.287137	1.10405	0.532111	-0.26688	1.03996	0.508693	-0.218569	0.985975	0.389279	-0.254785	0.939969	0.850201	-0.177235	1.04461	0.853161	-0.206281	1.05791	0.736542	-0.216183	1.01075	0.196559	-0.259613	0.767418	1.42675	-0.0813579	0.681175	1.4051	-0.111982	0.657322	1.35968	-0.0628565
322	3.29	0.835324	1.57975	-0.326316	0.94241	1.48832	-0.293089	0.892206	1.56804	-0.47944	0.906044	1.04812	-0.449206	0.282533	0.270855	-0.321712	0.99199	1.31898	-0.466828	0.898395	1.21397	-0.568811	1.02548	1.25909	-0.473597	0.830716	1.23829	-0.636622	0.777936	1.22263	-0.558783	0.321528	0.105777	-0.407616	0.815105	1.5259	-0.505739	0.746801	1.1082	-0.377714	0.566734	0.445213	-0.422435	0.435287	0.418077	-0.42643	0.43636	0.303434	-0.391114	0.725441	0.863833	-0.493836	0.74504	0.736068	-0.479963	0.652942	0.670551	-0.463307	0.383647	0.0810063	-0.350712	0.836076	1.43916	-0.565909	0.778835	1.35715	-0.562497	0.813298	1.31595	-0.616369	0.861138	1.542	-0.165801	0.913676	1.06752	-0.218987	0.872002	0.284018	-0.296578	0.830092	1.15041	-0.0926059	0.653561	1.22878	-0.0393636	0.791595	1.10163	-0.065797	0.630399	1.30607	-0.034849	0.936129	0.29061	-0.230791	0.612478	1.29594	-0.119959	0.963491	0.297353	-0.311484	0.996907	0.19558	-0.192013	0.748885	1.10553	-0.289989	1.12213	0.532915	-0.262497	1.06128	0.501304	-0.215622	1.0229	0.376234	-0.253726	0.939456	0.854147	-0.178908	1.04498	0.856527	-0.204155	1.05768	0.740539	-0.216967	1.0701	0.184863	-0.260289	0.763447	1.43532	-0.0812287	0.677752	1.41385	-0.114124	0.652025	1.36979	-0.0649435
323	3.3	0.834525	1.58398	-0.324972	0.941932	1.4935	-0.29073	0.891451	1.57451	-0.476757	0.910067	1.05508	-0.451021	0.264637	0.300344	-0.322533	0.989996	1.32606	-0.462784	0.899888	1.22177	-0.568831	1.02398	1.26635	-0.469557	0.83427	1.24665	-0.638411	0.77925	1.23019	-0.562394	0.291705	0.13214	-0.407017	0.814849	1.53167	-0.503904	0.750754	1.11412	-0.380301	0.55551	0.457674	-0.422769	0.422863	0.436794	-0.42744	0.417682	0.322726	-0.391164	0.725187	0.873612	-0.495822	0.742274	0.744341	-0.482228	0.649069	0.680706	-0.464075	0.354109	0.0975541	-0.350895	0.837427	1.44655	-0.565058	0.780877	1.36508	-0.564614	0.816945	1.32428	-0.617721	0.859371	1.54672	-0.164572	0.915639	1.07256	-0.220454	0.920792	0.255133	-0.298825	0.826479	1.15982	-0.0891916	0.648426	1.23761	-0.0389903	0.787935	1.11077	-0.0628944	0.62509	1.31488	-0.0355591	0.982898	0.266808	-0.231988	0.609348	1.30353	-0.120931	1.01032	0.278019	-0.312091	1.05225	0.177213	-0.193499	0.752025	1.11052	-0.292507	1.13658	0.531456	-0.258202	1.08034	0.491805	-0.212797	1.05804	0.363459	-0.252879	0.936706	0.854173	-0.181546	1.04328	0.856072	-0.202423	1.05502	0.74066	-0.217552	1.12724	0.174927	-0.261036	0.760719	1.44211	-0.0805538	0.675364	1.42106	-0.115233	0.648085	1.3781	-0.0662011
324	3.31	0.834157	1.58756	-0.323126	0.94189	1.49771	-0.288527	0.890575	1.58024	-0.474168	0.912817	1.06126	-0.453343	0.245342	0.330739	-0.322207	0.988536	1.32997	-0.46014	0.900232	1.22827	-0.570482	1.02239	1.2702	-0.467716	0.836202	1.25477	-0.640632	0.779587	1.23723	-0.566425	0.264736	0.160995	-0.405326	0.814271	1.53676	-0.501499	0.754458	1.11903	-0.383082	0.547238	0.467513	-0.423136	0.413359	0.455386	-0.428081	0.400364	0.342633	-0.389985	0.726356	0.880806	-0.497829	0.743284	0.750236	-0.484122	0.649423	0.686939	-0.465587	0.324871	0.120777	-0.348389	0.837371	1.45328	-0.563867	0.781804	1.37202	-0.566205	0.818978	1.33213	-0.619398	0.858635	1.5503	-0.162836	0.91696	1.07569	-0.222342	0.968431	0.229878	-0.301047	0.823893	1.16707	-0.0851658	0.644678	1.24478	-0.0378124	0.785242	1.11787	-0.0592225	0.621352	1.32201	-0.035396	1.02825	0.24538	-0.233079	0.607114	1.30959	-0.120911	1.05518	0.261139	-0.312618	1.10514	0.16081	-0.195709	0.754507	1.11447	-0.294494	1.14714	0.527754	-0.254656	1.09672	0.480562	-0.210325	1.09061	0.351246	-0.252299	0.933143	0.851784	-0.184198	1.04059	0.852796	-0.200767	1.05011	0.737273	-0.217018	1.18116	0.167274	-0.262232	0.759306	1.44712	-0.0793342	0.67407	1.42677	-0.115152	0.645636	1.38454	-0.0664365
325	3.32	0.834341	1.59084	-0.320757	0.942072	1.50109	-0.286566	0.890013	1.58516	-0.471824	0.914699	1.06638	-0.45533	0.227952	0.362507	-0.321165	0.987794	1.33085	-0.45895	0.899424	1.23349	-0.573488	1.0208	1.27075	-0.467997	0.836454	1.26271	-0.643117	0.778883	1.24398	-0.570492	0.239326	0.191514	-0.403076	0.813781	1.54146	-0.498788	0.757022	1.12264	-0.38538	0.541589	0.475541	-0.424018	0.406717	0.47388	-0.428308	0.385282	0.363054	-0.38888	0.729444	0.884748	-0.4996	0.747275	0.753706	-0.484996	0.653073	0.689947	-0.467392	0.296103	0.14876	-0.345077	0.83644	1.45956	-0.56258	0.781641	1.37837	-0.567265	0.819291	1.33972	-0.621258	0.858834	1.55285	-0.160725	0.917745	1.07746	-0.224187	1.01273	0.2087	-0.302614	0.822486	1.17206	-0.0805262	0.642486	1.25018	-0.0357399	0.783574	1.12277	-0.0550733	0.619418	1.32737	-0.0342541	1.07036	0.226987	-0.233868	0.606023	1.31414	-0.11972	1.09602	0.247165	-0.312911	1.1544	0.147093	-0.198844	0.756143	1.11729	-0.295762	1.15381	0.521856	-0.252249	1.10993	0.468223	-0.208437	1.11955	0.339971	-0.252019	0.929989	0.849002	-0.185616	1.03784	0.84763	-0.198802	1.04325	0.731088	-0.215035	1.23008	0.162964	-0.264351	0.759243	1.45045	-0.0776663	0.673924	1.431	-0.114002	0.644755	1.38921	-0.0655856
326	3.33	0.835044	1.59382	-0.318117	0.942323	1.50357	-0.284941	0.890061	1.58916	-0.469699	0.916144	1.07044	-0.456617	0.21565	0.395644	-0.319847	0.987671	1.32882	-0.459227	0.897364	1.23745	-0.57753	1.01903	1.26819	-0.470252	0.835111	1.27048	-0.645813	0.777031	1.25067	-0.574421	0.215444	0.224127	-0.401475	0.813692	1.54586	-0.496081	0.75767	1.12489	-0.386669	0.538866	0.482216	-0.425226	0.403737	0.49207	-0.428249	0.373567	0.383904	-0.388704	0.734263	0.885754	-0.501057	0.752867	0.755218	-0.485213	0.658812	0.690685	-0.468869	0.269284	0.178916	-0.343647	0.835327	1.46547	-0.561421	0.780598	1.38456	-0.568041	0.81816	1.34716	-0.62315	0.859842	1.55445	-0.158525	0.918211	1.07848	-0.225503	1.05123	0.191483	-0.303205	0.822386	1.17477	-0.0753848	0.641979	1.25373	-0.0327365	0.783026	1.12542	-0.0507156	0.619401	1.33094	-0.0321024	1.10714	0.21222	-0.234455	0.606335	1.31709	-0.117285	1.13053	0.236325	-0.313152	1.19838	0.137353	-0.202788	0.756717	1.1188	-0.296538	1.15693	0.514198	-0.250874	1.11955	0.455716	-0.207236	1.14362	0.330081	-0.252112	0.927683	0.846975	-0.185187	1.0352	0.841008	-0.196679	1.0349	0.723019	-0.212149	1.27184	0.162819	-0.26789	0.760461	1.4523	-0.0756701	0.674934	1.43376	-0.112	0.645422	1.39222	-0.0637137
